<svg width="138" height="46" viewBox="0 0 138 46" fill="none" xmlns="http://www.w3.org/2000/svg">
<path d="M0 27.8803H18.254V0H0V27.8803ZM3.35873 7.2479C3.35873 7.15126 3.45608 7.05462 3.55344 7.05462H6.37672C6.47407 7.05462 6.52275 7.10294 6.57143 7.19958L9.15132 14.2059L11.6825 7.19958C11.7312 7.10294 11.7799 7.05462 11.8772 7.05462H14.7005C14.7979 7.05462 14.8952 7.15126 14.8952 7.2479V20.6807C14.8952 20.7773 14.7979 20.874 14.7005 20.874H12.072C11.9746 20.874 11.8772 20.7773 11.8772 20.6807V12.6113L10.1249 17.6849C10.0762 17.7815 10.0275 17.8298 9.93016 17.8298H8.27513C8.17778 17.8298 8.1291 17.7815 8.08042 17.6849L6.32804 12.6113V20.6807C6.32804 20.7773 6.23069 20.874 6.13333 20.874H3.55344C3.45608 20.874 3.35873 20.7773 3.35873 20.6807V7.2479Z" fill="white"/>
<path d="M68.9757 9.5188L67.7101 15.4621H70.2413L68.9757 9.5188Z" fill="white"/>
<path d="M59.873 27.8803H78.127V0H59.873V27.8803ZM64.4 16.7668C64.4 16.7185 64.4 16.7185 64.4 16.7668L66.9312 7.2479C66.9312 7.15126 67.0286 7.10294 67.126 7.10294H70.8741C70.9715 7.10294 71.0201 7.15126 71.0688 7.2479L73.6 16.7185V16.7668V20.6807C73.6 20.7773 73.5027 20.874 73.4053 20.874H70.7281C70.6307 20.874 70.5334 20.7773 70.5334 20.6807V18.1197H67.4667V20.6807C67.4667 20.7773 67.3693 20.874 67.272 20.874H64.5947C64.4974 20.874 64.4 20.7773 64.4 20.6807V16.7668Z" fill="white"/>
<path d="M90.0042 12.1281V10.147C90.0042 9.90544 89.8095 9.71216 89.5661 9.71216H87.619V12.563H89.5661C89.8095 12.563 90.0042 12.3697 90.0042 12.1281Z" fill="white"/>
<path d="M90.2476 17.7816V15.6556C90.2476 15.414 90.0529 15.2207 89.8095 15.2207H87.619V18.2165H89.8582C90.1016 18.2165 90.2476 18.0232 90.2476 17.7816Z" fill="white"/>
<path d="M79.8307 27.8803H98.0847V0H79.8307V27.8803ZM84.6011 7.2479C84.6011 7.15126 84.6984 7.05462 84.7958 7.05462H90.2963C91.8053 7.05462 93.0222 8.26261 93.0222 9.7605V12.3214C93.0222 12.4664 92.9735 12.563 92.8762 12.6597L91.4645 13.7227L93.1683 15.0756C93.2656 15.1723 93.3143 15.2689 93.3143 15.4139V18.1197C93.3143 19.6176 92.0974 20.8256 90.5884 20.8256H84.7958C84.6984 20.8256 84.6011 20.729 84.6011 20.6324V7.2479Z" fill="white"/>
<path d="M107.625 18.313H110.108C110.205 18.313 110.303 18.2163 110.303 18.1197V9.80876C110.303 9.71212 110.205 9.61548 110.108 9.61548H107.625C107.528 9.61548 107.431 9.71212 107.431 9.80876V18.1197C107.431 18.2163 107.528 18.313 107.625 18.313Z" fill="white"/>
<path d="M99.7883 27.8803H118.042V0H99.7883V27.8803ZM104.413 18.2647V9.66387C104.413 8.16597 105.63 6.90966 107.187 6.90966H110.546C112.055 6.90966 113.321 8.11765 113.321 9.66387V18.313C113.321 19.8109 112.104 21.0672 110.546 21.0672H107.187C105.678 21.0189 104.413 19.8109 104.413 18.2647Z" fill="white"/>
<path d="M119.697 0V27.8803H137.951V0H119.697ZM133.327 20.6807C133.327 20.7773 133.23 20.874 133.132 20.874H130.504C130.406 20.874 130.358 20.8256 130.309 20.729L128.8 15.8487L127.291 20.729C127.291 20.8256 127.194 20.874 127.096 20.874H124.468C124.37 20.874 124.273 20.7773 124.273 20.6807V17.8298C124.273 17.7815 124.273 17.7815 124.322 17.7332L126.61 13.9643L124.419 10.0987C124.419 10.0504 124.419 10.0504 124.419 10.0021V7.2479C124.419 7.15126 124.516 7.05462 124.614 7.05462H127.291C127.388 7.05462 127.437 7.10294 127.486 7.19958L128.8 11.8866L130.114 7.19958C130.114 7.10294 130.212 7.05462 130.309 7.05462H132.986C133.084 7.05462 133.181 7.15126 133.181 7.2479V10.0021C133.181 10.0504 133.181 10.0504 133.181 10.0987L130.991 13.9643L133.278 17.7332C133.278 17.7815 133.327 17.7815 133.327 17.8298V20.6807Z" fill="white"/>
<path d="M19.9576 27.8803H38.2116V0H19.9576V27.8803ZM25.4582 7.2479C25.4582 7.15126 25.5555 7.05462 25.6529 7.05462H32.7111C32.8084 7.05462 32.9058 7.15126 32.9058 7.2479V9.61555C32.9058 9.71218 32.8084 9.80882 32.7111 9.80882H28.5248V12.5147H32.5164C32.6137 12.5147 32.7111 12.6113 32.7111 12.708V14.979C32.7111 15.0756 32.6137 15.1723 32.5164 15.1723H28.5248V18.1197H32.8571C32.9545 18.1197 33.0518 18.2164 33.0518 18.313V20.6807C33.0518 20.7773 32.9545 20.874 32.8571 20.874H25.6529C25.5555 20.874 25.4582 20.7773 25.4582 20.6807V7.2479Z" fill="white"/>
<path d="M39.9153 27.8803H58.1693V0H39.9153V27.8803ZM44.5883 9.66387C44.5883 8.16597 45.8052 6.90966 47.3629 6.90966H50.7216C52.2306 6.90966 53.4962 8.11765 53.4962 9.66387V11.4034C53.4962 11.5 53.3989 11.5966 53.3015 11.5966H50.6243C50.5269 11.5966 50.4296 11.5 50.4296 11.4034V9.80882C50.4296 9.71218 50.3322 9.61555 50.2349 9.61555H47.7523C47.655 9.61555 47.5576 9.71218 47.5576 9.80882V18.1197C47.5576 18.2164 47.655 18.313 47.7523 18.313H50.2349C50.3322 18.313 50.4296 18.2164 50.4296 18.1197V15.8971H49.1153C49.0179 15.8971 48.9206 15.8004 48.9206 15.7038V13.4328C48.9206 13.3361 49.0179 13.2395 49.1153 13.2395H53.2528C53.3502 13.2395 53.4476 13.3361 53.4476 13.4328V20.6807C53.4476 20.7773 53.3502 20.874 53.2528 20.874H50.8677C50.7703 20.874 50.673 20.8256 50.673 20.729L50.5756 19.7143L49.5047 21.0189C49.456 21.0672 49.4073 21.0672 49.3587 21.0672H47.3629C45.8539 21.0672 44.5883 19.8592 44.5883 18.313V9.66387Z" fill="white"/>
<path d="M119 32.3866H119.681V34.2227H120.12V32.3866H120.85V32H119V32.3866Z" fill="white"/>
<path d="M122.797 32L122.31 33.4979L121.823 32H121.093V34.2227H121.531V32.5315L122.067 34.2227H122.553L123.089 32.5315V34.2227H123.527V32H122.797Z" fill="white"/>
<path d="M30.7926 40.6975H27.3852V38.3782H30.5005C30.5979 38.3782 30.6466 38.3298 30.6466 38.2332V36.3971C30.6466 36.3004 30.5979 36.2521 30.5005 36.2521H27.3852V34.1261H30.6952C30.7926 34.1261 30.8413 34.0777 30.8413 33.9811V32.145C30.8413 32.0483 30.7926 32 30.6952 32H25.146C25.0487 32 25 32.0483 25 32.145V42.7269C25 42.8235 25.0487 42.8719 25.146 42.8719H30.7926C30.8899 42.8719 30.9386 42.8235 30.9386 42.7269V40.8424C30.9386 40.7941 30.8899 40.6975 30.7926 40.6975Z" fill="white"/>
<path d="M37.7926 40.6975H34.3852V38.3782H37.5005C37.5979 38.3782 37.6466 38.3298 37.6466 38.2332V36.3971C37.6466 36.3004 37.5979 36.2521 37.5005 36.2521H34.3852V34.1261H37.6952C37.7926 34.1261 37.8413 34.0777 37.8413 33.9811V32.145C37.8413 32.0483 37.7926 32 37.6952 32H32.146C32.0487 32 32 32.0483 32 32.145V42.7269C32 42.8235 32.0487 42.8719 32.146 42.8719H37.7926C37.8899 42.8719 37.9386 42.8235 37.9386 42.7269V40.8424C37.9386 40.7941 37.8899 40.6975 37.7926 40.6975Z" fill="white"/>
<path d="M117.793 40.6975H114.385V38.3782H117.501C117.598 38.3782 117.647 38.3298 117.647 38.2332V36.3971C117.647 36.3004 117.598 36.2521 117.501 36.2521H114.385V34.1261H117.695C117.793 34.1261 117.841 34.0777 117.841 33.9811V32.145C117.841 32.0483 117.793 32 117.695 32H112.146C112.049 32 112 32.0483 112 32.145V42.7269C112 42.8235 112.049 42.8719 112.146 42.8719H117.793C117.89 42.8719 117.939 42.8235 117.939 42.7269V40.8424C117.939 40.7941 117.841 40.6975 117.793 40.6975Z" fill="white"/>
<path d="M101.257 32.0966C101.257 32.0483 101.16 32 101.111 32H98.1418C98.0931 32 97.9958 32.0483 97.9958 32.0966L96 39.5861V39.6345V42.7269C96 42.8235 96.0487 42.8719 96.146 42.8719H98.2391C98.3365 42.8719 98.3852 42.8235 98.3852 42.7269V40.6975H100.819V42.7269C100.819 42.8235 100.868 42.8719 100.965 42.8719H103.058C103.156 42.8719 103.204 42.8235 103.204 42.7269V39.6345V39.5861L101.257 32.0966ZM98.6286 38.6198L99.6508 33.9328L100.673 38.6198H98.6286Z" fill="white"/>
<path d="M68.2571 32.0966C68.2571 32.0483 68.1598 32 68.1111 32H65.1418C65.0931 32 64.9958 32.0483 64.9958 32.0966L63 39.5861V39.6345V42.7269C63 42.8235 63.0487 42.8719 63.146 42.8719H65.2391C65.3365 42.8719 65.3852 42.8235 65.3852 42.7269V40.6975H67.819V42.7269C67.819 42.8235 67.8677 42.8719 67.9651 42.8719H70.0582C70.1556 42.8719 70.2042 42.8235 70.2042 42.7269V39.6345V39.5861L68.2571 32.0966ZM65.6286 38.6198L66.6508 33.9328L67.673 38.6198H65.6286Z" fill="white"/>
<path d="M110.523 38.9097L109.403 37.895L110.523 37.0735C110.62 37.0252 110.669 36.9286 110.669 36.7836V34.1744C110.669 32.9664 109.695 32 108.478 32H104.146C104.049 32 104 32.0483 104 32.145V42.7269C104 42.8235 104.049 42.8719 104.146 42.8719H106.239C106.337 42.8719 106.385 42.8235 106.385 42.7269V39.0063H108.138C108.235 39.0063 108.284 39.0546 108.284 39.1513V42.7269C108.284 42.8235 108.332 42.8719 108.43 42.8719H110.571C110.669 42.8719 110.717 42.8235 110.717 42.7269V39.1513C110.62 39.1029 110.571 39.0063 110.523 38.9097ZM108.186 36.6387C108.186 36.8319 108.04 36.9769 107.845 36.9769H106.288V34.1261H107.845C108.04 34.1261 108.186 34.271 108.186 34.4643V36.6387Z" fill="white"/>
<path d="M62.3058 42.9202C62.4032 42.9202 62.4519 42.8719 62.4519 42.7752V40.8908C62.4519 40.7941 62.4032 40.7458 62.3058 40.7458H59.3852V32.145C59.3852 32.0483 59.3365 32 59.2392 32H57.146C57.0487 32 57 32.0483 57 32.145V42.7752C57 42.8719 57.0487 42.9202 57.146 42.9202H62.3058Z" fill="white"/>
<path d="M95.0095 32H92.9164C92.8191 32 92.7704 32.0483 92.7704 32.145V36.3487H90.3852V32.145C90.3852 32.0483 90.3365 32 90.2392 32H88.146C88.0487 32 88 32.0483 88 32.145V42.7752C88 42.8718 88.0487 42.9202 88.146 42.9202H90.2392C90.3365 42.9202 90.3852 42.8718 90.3852 42.7752V38.5231H92.7704V42.7752C92.7704 42.8718 92.8191 42.9202 92.9164 42.9202H95.0095C95.1069 42.9202 95.1556 42.8718 95.1556 42.7752V32.145C95.1556 32.0483 95.1069 32 95.0095 32Z" fill="white"/>
<path d="M45.8148 32H39.146C39.0487 32 39 32.0483 39 32.145V34.0294C39 34.1261 39.0487 34.1744 39.146 34.1744H41.2878V42.7269C41.2878 42.8235 41.3365 42.8719 41.4339 42.8719H43.527C43.6243 42.8719 43.673 42.8235 43.673 42.7269V34.1744H45.8148C45.9122 34.1744 45.9608 34.1261 45.9608 34.0294V32.145C45.9608 32.0483 45.9122 32 45.8148 32Z" fill="white"/>
<path d="M17.5 43H15V32H17.5L19.5 37L21.5 32H24V43H21.5V37L20.5 40.5H18.5L17.5 37V43Z" fill="white"/>
<path fill-rule="evenodd" clip-rule="evenodd" d="M50 32V43H52.5V39H55C55.5 39 56.5 38.3 56.5 37.5V34C56.5 33.5 56.5 32 55 32H50ZM52.5 34.5V36.5H54.5V34H52.5V34.5Z" fill="white"/>
<path d="M72 32H70V34L72.5 39.5V43H74.5V39.5L77 34V32H75L73.5 36.5L72 32Z" fill="white"/>
<path d="M87.5 35.5H85.5V34H83V36L86 37C87.5 37.5 87.5 38 87.5 39V41.5C87.5 42.7 86.5 43 86 43H83C81 43 81 42 81 41.5V39.5H83V41H85.5V39L83 38C81.5 37.5 81 36.8333 81 36.5V33.5C81 32.3 82 32 82.5 32H86C87.5 32 87.5 34 87.5 35.5Z" fill="white"/>
</svg>
