<svg width="34" height="23" viewBox="0 0 34 23" fill="none" xmlns="http://www.w3.org/2000/svg">
<g filter="url(#filter0_d_24_4444)">
<path d="M0.445023 18.3269H10.495L10.9614 16.485H7.26143L11.2934 0.562554H9.54338C8.4211 1.14419 7.14177 1.55619 5.42426 1.82278L5.06218 3.25265H8.33718L4.98643 16.485H0.911429L0.445023 18.3269ZM18.9763 18.6661C22.4263 18.6661 25.4307 15.5883 27.0017 9.38412C28.5605 3.22841 27.0903 0.247497 23.6403 0.247497C20.1403 0.247497 17.1605 3.22841 15.6017 9.38412C14.0307 15.5883 15.4763 18.6661 18.9763 18.6661ZM19.4304 16.8728C17.3304 16.8728 16.4762 14.6189 17.8017 9.38412C19.1089 4.22205 21.0924 2.01666 23.1924 2.01666C25.2674 2.01666 26.1089 4.22205 24.8017 9.38412C23.4762 14.6189 21.5054 16.8728 19.4304 16.8728Z" fill="white"/>
</g>
<defs>
<filter id="filter0_d_24_4444" x="0.359131" y="0.247437" width="32.9562" height="22.4187" filterUnits="userSpaceOnUse" color-interpolation-filters="sRGB">
<feFlood flood-opacity="0" result="BackgroundImageFix"/>
<feColorMatrix in="SourceAlpha" type="matrix" values="0 0 0 0 0 0 0 0 0 0 0 0 0 0 0 0 0 0 127 0" result="hardAlpha"/>
<feOffset dx="2" dy="2"/>
<feGaussianBlur stdDeviation="1"/>
<feComposite in2="hardAlpha" operator="out"/>
<feColorMatrix type="matrix" values="0 0 0 0 0 0 0 0 0 0 0 0 0 0 0 0 0 0 0.31 0"/>
<feBlend mode="normal" in2="BackgroundImageFix" result="effect1_dropShadow_24_4444"/>
<feBlend mode="normal" in="SourceGraphic" in2="effect1_dropShadow_24_4444" result="shape"/>
</filter>
</defs>
</svg>
