<svg width="22" height="23" viewBox="0 0 22 23" fill="none" xmlns="http://www.w3.org/2000/svg">
<g filter="url(#filter0_d_7402_3097)">
<path d="M6.73411 18.6661C10.0091 18.6661 13.1189 16.7516 13.9167 13.601C14.5365 11.1533 13.1854 9.578 11.1643 9.06906L11.1889 8.97212C13.3107 8.29354 14.9728 6.86367 15.519 4.70675C16.237 1.87125 14.3982 0.247497 11.3232 0.247497C9.22316 0.247497 7.3711 1.14419 5.68925 2.35595L6.55217 3.78582C7.83492 2.76795 9.31903 2.04089 10.794 2.04089C12.694 2.04089 13.5867 3.15571 13.1571 4.85216C12.6662 6.79097 11.023 8.24507 7.24798 8.24507L6.81226 9.96576C11.0373 9.96576 12.1563 11.3714 11.6163 13.5041C11.1008 15.5398 9.22551 16.8243 7.05051 16.8243C4.95051 16.8243 3.82099 15.8549 3.02215 14.7643L1.50393 16.2184C2.37868 17.5029 3.85911 18.6661 6.73411 18.6661Z" fill="white"/>
</g>
<defs>
<filter id="filter0_d_7402_3097" x="0.884033" y="0.247559" width="20.4141" height="22.4187" filterUnits="userSpaceOnUse" color-interpolation-filters="sRGB">
<feFlood flood-opacity="0" result="BackgroundImageFix"/>
<feColorMatrix in="SourceAlpha" type="matrix" values="0 0 0 0 0 0 0 0 0 0 0 0 0 0 0 0 0 0 127 0" result="hardAlpha"/>
<feOffset dx="2" dy="2"/>
<feGaussianBlur stdDeviation="1"/>
<feComposite in2="hardAlpha" operator="out"/>
<feColorMatrix type="matrix" values="0 0 0 0 0 0 0 0 0 0 0 0 0 0 0 0 0 0 0.31 0"/>
<feBlend mode="normal" in2="BackgroundImageFix" result="effect1_dropShadow_7402_3097"/>
<feBlend mode="normal" in="SourceGraphic" in2="effect1_dropShadow_7402_3097" result="shape"/>
</filter>
</defs>
</svg>
