<svg width="22" height="23" viewBox="0 0 22 23" fill="none" xmlns="http://www.w3.org/2000/svg">
<g filter="url(#filter0_d_24_4355)">
<path d="M6.68411 18.6661C9.75911 18.6661 13.2487 16.4365 14.2306 12.5589C15.2248 8.63283 13.1916 6.88791 10.1416 6.88791C9.04165 6.88791 8.14914 7.15449 7.21368 7.59072L8.9897 2.45289H15.9147L16.3934 0.562554H7.46838L4.78842 8.87518L5.82318 9.62647C7.04501 8.94789 7.9182 8.56013 9.1432 8.56013C11.4182 8.56013 12.5316 10.0869 11.8872 12.6316C11.2367 15.2005 9.10051 16.8243 6.92551 16.8243C4.82551 16.8243 3.71485 15.8791 2.95374 14.837L1.43552 16.2911C2.37868 17.5029 3.83411 18.6661 6.68411 18.6661Z" fill="white"/>
</g>
<defs>
<filter id="filter0_d_24_4355" x="0.834106" y="0.5625" width="20.4343" height="22.1036" filterUnits="userSpaceOnUse" color-interpolation-filters="sRGB">
<feFlood flood-opacity="0" result="BackgroundImageFix"/>
<feColorMatrix in="SourceAlpha" type="matrix" values="0 0 0 0 0 0 0 0 0 0 0 0 0 0 0 0 0 0 127 0" result="hardAlpha"/>
<feOffset dx="2" dy="2"/>
<feGaussianBlur stdDeviation="1"/>
<feComposite in2="hardAlpha" operator="out"/>
<feColorMatrix type="matrix" values="0 0 0 0 0 0 0 0 0 0 0 0 0 0 0 0 0 0 0.31 0"/>
<feBlend mode="normal" in2="BackgroundImageFix" result="effect1_dropShadow_24_4355"/>
<feBlend mode="normal" in="SourceGraphic" in2="effect1_dropShadow_24_4355" result="shape"/>
</filter>
</defs>
</svg>
