<svg width="21" height="23" viewBox="0 0 21 23" fill="none" xmlns="http://www.w3.org/2000/svg">
<g filter="url(#filter0_d_24_4372)">
<path d="M6.68411 18.6661C9.50911 18.6661 12.5233 16.3396 13.3947 12.8982C14.3398 9.166 12.8062 7.32414 9.70618 7.32414C8.23118 7.32414 6.31025 8.1966 4.82318 9.62647L4.45018 11.3956C6.12318 9.62647 7.77001 8.94789 8.94501 8.94789C11.145 8.94789 11.8584 10.4747 11.2447 12.8982C10.6371 15.2975 8.87596 16.9212 7.12596 16.9212C4.55096 16.9212 3.75807 14.425 4.91181 9.86882C6.38467 4.0524 9.03176 2.08936 11.6068 2.08936C12.7068 2.08936 13.7029 2.5983 14.1942 3.42229L15.8129 2.06513C15.0768 1.02302 13.8732 0.247497 11.9732 0.247497C8.42316 0.247497 4.5231 2.91336 2.76181 9.86882C1.27667 15.7337 3.15911 18.6661 6.68411 18.6661Z" fill="white"/>
</g>
<defs>
<filter id="filter0_d_24_4372" x="0.534058" y="0.247437" width="20.0641" height="22.4187" filterUnits="userSpaceOnUse" color-interpolation-filters="sRGB">
<feFlood flood-opacity="0" result="BackgroundImageFix"/>
<feColorMatrix in="SourceAlpha" type="matrix" values="0 0 0 0 0 0 0 0 0 0 0 0 0 0 0 0 0 0 127 0" result="hardAlpha"/>
<feOffset dx="2" dy="2"/>
<feGaussianBlur stdDeviation="1"/>
<feComposite in2="hardAlpha" operator="out"/>
<feColorMatrix type="matrix" values="0 0 0 0 0 0 0 0 0 0 0 0 0 0 0 0 0 0 0.31 0"/>
<feBlend mode="normal" in2="BackgroundImageFix" result="effect1_dropShadow_24_4372"/>
<feBlend mode="normal" in="SourceGraphic" in2="effect1_dropShadow_24_4372" result="shape"/>
</filter>
</defs>
</svg>
