<svg width="24" height="24" viewBox="0 0 24 24" fill="none" xmlns="http://www.w3.org/2000/svg">
<path d="M17.0056 11.1053L17.8828 11.8947C17.9608 11.9649 17.9669 12.0296 17.901 12.0889L9.20966 19.9111C9.14382 19.9704 9.07191 19.9649 8.99394 19.8947L8.11675 19.1053C8.03877 19.0351 8.03271 18.9704 8.09855 18.9111L16.7899 11.0889C16.8558 11.0296 16.9277 11.0351 17.0056 11.1053Z" fill="#503396"/>
<path d="M9.21444 4.09302L17.8966 11.907C17.9655 11.969 17.961 12.0351 17.883 12.1053L17.0058 12.8947C16.9278 12.9649 16.8544 12.969 16.7855 12.907L8.10333 5.09302C8.03443 5.03101 8.03896 4.96491 8.11693 4.89474L8.99412 4.10526C9.0721 4.03509 9.14554 4.03101 9.21444 4.09302Z" fill="#503396"/>
</svg>
