<svg width="24" height="24" viewBox="0 0 24 24" fill="none" xmlns="http://www.w3.org/2000/svg">
<path d="M6.99437 11.1053L6.11718 11.8947C6.0392 11.9649 6.03314 12.0296 6.09898 12.0889L14.7903 19.9111C14.8562 19.9704 14.9281 19.9649 15.0061 19.8947L15.8833 19.1053C15.9612 19.0351 15.9673 18.9704 15.9014 18.9111L7.21009 11.0889C7.14425 11.0296 7.07234 11.0351 6.99437 11.1053Z" fill="#503396"/>
<path d="M14.7856 4.09302L6.10339 11.907C6.03448 11.969 6.03902 12.0351 6.11699 12.1053L6.99418 12.8947C7.07215 12.9649 7.14559 12.969 7.2145 12.907L15.8967 5.09302C15.9656 5.03101 15.961 4.96491 15.8831 4.89474L15.0059 4.10526C14.9279 4.03509 14.8545 4.03101 14.7856 4.09302Z" fill="#503396"/>
</svg>
