<svg width="22" height="22" viewBox="0 0 22 22" fill="none" xmlns="http://www.w3.org/2000/svg">
<path d="M6.50016 2.29166C6.25705 2.29166 6.02389 2.38823 5.85198 2.56014C5.68007 2.73205 5.5835 2.96521 5.5835 3.20832V5.04166C5.5835 5.28477 5.68007 5.51793 5.85198 5.68984C6.02389 5.86175 6.25705 5.95832 6.50016 5.95832C6.74328 5.95832 6.97644 5.86175 7.14834 5.68984C7.32025 5.51793 7.41683 5.28477 7.41683 5.04166V3.20832C7.41683 2.96521 7.32025 2.73205 7.14834 2.56014C6.97644 2.38823 6.74328 2.29166 6.50016 2.29166V2.29166Z" fill="#AC9C86"/>
<path fill-rule="evenodd" clip-rule="evenodd" d="M12.8182 20.0002C13.9783 20 15.101 19.5337 15.9871 18.6838C16.8733 17.834 17.4657 16.6555 17.6594 15.3573H17.7273C18.5953 15.3573 19.4277 14.966 20.0414 14.2694C20.6552 13.5728 21 12.6281 21 11.643C21 10.6579 20.6552 9.71318 20.0414 9.01661C19.4277 8.32005 18.5953 7.92872 17.7273 7.92872V7.00015H3V14.4287C3 15.9064 3.51721 17.3235 4.43784 18.3683C5.35847 19.4132 6.60712 20.0002 7.90909 20.0002H12.8182ZM4.63636 8.8573V14.4287C4.63636 15.4138 4.98117 16.3586 5.59492 17.0551C6.20868 17.7517 7.04111 18.143 7.90909 18.143H12.8182C13.6862 18.143 14.5186 17.7517 15.1323 17.0551C15.7461 16.3586 16.0909 15.4138 16.0909 14.4287V8.8573H4.63636ZM19.3636 11.643C19.3636 12.1356 19.1912 12.6079 18.8844 12.9562C18.5775 13.3045 18.1613 13.5002 17.7273 13.5002V9.78587C18.1613 9.78587 18.5775 9.98153 18.8844 10.3298C19.1912 10.6781 19.3636 11.1505 19.3636 11.643Z" fill="#AC9C86"/>
<path d="M9.25 3.20832C9.25 2.96521 9.34658 2.73205 9.51849 2.56014C9.69039 2.38823 9.92355 2.29166 10.1667 2.29166C10.4098 2.29166 10.6429 2.38823 10.8148 2.56014C10.9868 2.73205 11.0833 2.96521 11.0833 3.20832V5.04166C11.0833 5.28477 10.9868 5.51793 10.8148 5.68984C10.6429 5.86175 10.4098 5.95832 10.1667 5.95832C9.92355 5.95832 9.69039 5.86175 9.51849 5.68984C9.34658 5.51793 9.25 5.28477 9.25 5.04166V3.20832ZM13.8333 2.29166C13.5902 2.29166 13.3571 2.38823 13.1852 2.56014C13.0132 2.73205 12.9167 2.96521 12.9167 3.20832V5.04166C12.9167 5.28477 13.0132 5.51793 13.1852 5.68984C13.3571 5.86175 13.5902 5.95832 13.8333 5.95832C14.0764 5.95832 14.3096 5.86175 14.4815 5.68984C14.6534 5.51793 14.75 5.28477 14.75 5.04166V3.20832C14.75 2.96521 14.6534 2.73205 14.4815 2.56014C14.3096 2.38823 14.0764 2.29166 13.8333 2.29166V2.29166Z" fill="#AC9C86"/>
</svg>
