<svg width="33" height="24" viewBox="0 0 33 24" fill="none" xmlns="http://www.w3.org/2000/svg">
<path d="M22.7685 0.999906L1 6.83276L2.2499 11.4974L2.90954 11.3207C3.97647 11.0348 5.07314 11.668 5.35903 12.7349L5.71253 14.0542C5.99841 15.1211 5.36524 16.2178 4.29831 16.5037L3.63867 16.6804L5.02745 21.8634L26.796 16.0305L25.4072 10.8476L24.7476 11.0243C23.6806 11.3102 22.5839 10.677 22.2981 9.6101L22.1213 8.95047L21.9446 8.29083C21.6587 7.2239 22.2918 6.12722 23.3588 5.84134L24.0184 5.66459L22.7685 0.999906Z" stroke="white"/>
<path d="M31.5851 7.43921H9.04871V12.2684H9.73161C10.8362 12.2684 11.7316 13.1639 11.7316 14.2684V15.6343C11.7316 16.7388 10.8362 17.6343 9.73161 17.6343H9.04871V23.0001H31.5851V17.6343H30.9022C29.7977 17.6343 28.9022 16.7388 28.9022 15.6343V14.9514V14.2684C28.9022 13.1639 29.7977 12.2684 30.9022 12.2684H31.5851V7.43921Z" fill="#222222" stroke="white"/>
<path d="M24.6827 13.8779L24.6827 16.0243" stroke="white"/>
<path d="M24.6827 10.6587L24.6827 12.805" stroke="white"/>
<path d="M24.6827 17.0977L24.6827 19.244" stroke="white"/>
</svg>
