<svg width="36" height="36" viewBox="0 0 36 36" fill="none" xmlns="http://www.w3.org/2000/svg">
<rect x="0.5" y="0.5" width="35" height="35" rx="2.5" stroke="#222222"/>
<path d="M26.9135 14.3875C26.8152 14.0027 26.6635 13.6336 26.4627 13.2909C26.2698 12.9344 26.0232 12.6097 25.7316 12.3283C25.3087 11.9068 24.808 11.5716 24.2572 11.3413C23.1485 10.8862 21.9052 10.8862 20.7966 11.3413C20.276 11.5616 19.7977 11.8708 19.3831 12.2551L19.3222 12.3283L18.5301 13.1203L17.7381 12.3283L17.6772 12.2551C17.2626 11.8708 16.7843 11.5616 16.2637 11.3413C15.155 10.8862 13.9118 10.8862 12.8031 11.3413C12.2523 11.5716 11.7516 11.9068 11.3287 12.3283C10.7504 12.891 10.341 13.6043 10.1468 14.3875C10.0434 14.7853 9.99426 15.1952 10.0005 15.6061C10.0005 15.9923 10.0493 16.3774 10.1468 16.7515C10.2489 17.1293 10.3962 17.4934 10.5854 17.8359C10.7898 18.1881 11.0397 18.5118 11.3287 18.7986L18.5301 26L25.7316 18.7986C26.0204 18.5147 26.2677 18.1893 26.4627 17.8359C26.8584 17.1598 27.0647 16.3895 27.0598 15.6061C27.0661 15.1952 27.0169 14.7853 26.9135 14.3875ZM25.695 16.3737C25.5491 16.9305 25.2591 17.439 24.8542 17.8481L18.5058 24.1844L12.1573 17.8481C11.9504 17.6398 11.7703 17.4065 11.6212 17.1536C11.4808 16.9034 11.3704 16.6375 11.2922 16.3615C11.2297 16.0856 11.197 15.8037 11.1947 15.5208C11.1963 15.2297 11.229 14.9397 11.2922 14.6556C11.3681 14.3788 11.4786 14.1127 11.6212 13.8636C11.7674 13.6077 11.9477 13.3762 12.1573 13.169C12.4703 12.8602 12.8381 12.6123 13.2418 12.4379C14.0553 12.1125 14.9628 12.1125 15.7763 12.4379C16.1784 12.6049 16.5415 12.8498 16.8486 13.1568L18.5058 14.8262L20.163 13.1568C20.4698 12.8492 20.8341 12.605 21.2352 12.4379C22.0487 12.1125 22.9563 12.1125 23.7698 12.4379C24.1731 12.6122 24.5411 12.8607 24.8542 13.169C25.0663 13.3701 25.2442 13.604 25.3782 13.8636C25.6604 14.3613 25.8075 14.9242 25.8047 15.4964C25.8213 15.7908 25.7967 16.0861 25.7316 16.3737H25.695Z" fill="#222222"/>
</svg>
