<svg width="48" height="48" viewBox="0 0 48 48" fill="none" xmlns="http://www.w3.org/2000/svg">
<rect x="6.5" y="6.5" width="35" height="35" rx="2.5" stroke="white"/>
<path d="M32.2323 20.3875C32.1321 20.0027 31.9775 19.6336 31.773 19.2909C31.5765 18.9344 31.3252 18.6097 31.0281 18.3283C30.5972 17.9068 30.087 17.5716 29.5259 17.3413C28.3963 16.8862 27.1296 16.8862 26.0001 17.3413C25.4697 17.5616 24.9824 17.8708 24.56 18.2551L24.4979 18.3283L23.6909 19.1203L22.884 18.3283L22.8219 18.2551C22.3995 17.8708 21.9122 17.5616 21.3818 17.3413C20.2522 16.8862 18.9855 16.8862 17.856 17.3413C17.2948 17.5716 16.7846 17.9068 16.3538 18.3283C15.7645 18.891 15.3474 19.6043 15.1495 20.3875C15.0443 20.7853 14.9942 21.1952 15.0005 21.6061C15.0005 21.9923 15.0502 22.3774 15.1495 22.7515C15.2536 23.1293 15.4037 23.4934 15.5965 23.8359C15.8047 24.1881 16.0593 24.5118 16.3538 24.7986L23.6909 32L31.0281 24.7986C31.3223 24.5147 31.5743 24.1893 31.773 23.8359C32.1762 23.1598 32.3863 22.3895 32.3813 21.6061C32.3877 21.1952 32.3376 20.7853 32.2323 20.3875ZM30.9908 22.3737C30.8421 22.9305 30.5467 23.439 30.1342 23.8481L23.6661 30.1844L17.198 23.8481C16.9872 23.6398 16.8037 23.4065 16.6517 23.1536C16.5087 22.9034 16.3962 22.6375 16.3165 22.3615C16.2529 22.0856 16.2196 21.8037 16.2172 21.5208C16.2189 21.2297 16.2522 20.9397 16.3165 20.6556C16.3939 20.3788 16.5065 20.1127 16.6517 19.8636C16.8007 19.6077 16.9844 19.3762 17.198 19.169C17.5169 18.8602 17.8916 18.6123 18.3029 18.4379C19.1317 18.1125 20.0563 18.1125 20.8852 18.4379C21.2949 18.6049 21.6648 18.8498 21.9777 19.1568L23.6661 20.8262L25.3545 19.1568C25.6671 18.8492 26.0383 18.605 26.447 18.4379C27.2758 18.1125 28.2005 18.1125 29.0293 18.4379C29.4402 18.6122 29.8151 18.8607 30.1342 19.169C30.3502 19.3701 30.5315 19.604 30.668 19.8636C30.9556 20.3613 31.1054 20.9242 31.1026 21.4964C31.1195 21.7908 31.0944 22.0861 31.0281 22.3737H30.9908Z" fill="white"/>
</svg>
