<svg width="22" height="22" viewBox="0 0 22 22" fill="none" xmlns="http://www.w3.org/2000/svg">
<path d="M6.41029 11C6.41029 13.5309 8.46913 15.5898 11 15.5898C13.531 15.5898 15.5898 13.5309 15.5898 11C15.5898 8.46909 13.531 6.41026 11 6.41026C8.46913 6.41026 6.41029 8.46909 6.41029 11ZM11 8.24359C12.5199 8.24359 13.7565 9.48018 13.7565 11C13.7565 12.5198 12.5199 13.7564 11 13.7564C9.48021 13.7564 8.24363 12.5198 8.24363 11C8.24363 9.48018 9.48021 8.24359 11 8.24359ZM10.0815 17.4167H11.9149V20.1667H10.0815V17.4167ZM10.0815 1.83334H11.9149V4.58334H10.0815V1.83334ZM1.83154 10.0833H4.58154V11.9167H1.83154V10.0833ZM17.4149 10.0833H20.1649V11.9167H17.4149V10.0833ZM3.86746 16.8328L5.81079 14.8876L7.10788 16.1838L5.16454 18.1289L3.86746 16.8328ZM14.8867 5.81534L16.8319 3.87018L18.128 5.16634L16.1829 7.11151L14.8867 5.81534ZM5.81354 7.11243L3.86838 5.16726L5.16546 3.87109L7.10879 5.81626L5.81354 7.11243ZM18.128 16.8337L16.8319 18.1298L14.8867 16.1847L16.1829 14.8885L18.128 16.8337Z" fill="#FFA800"/>
</svg>
