<svg width="17" height="17" viewBox="0 0 17 17" fill="none" xmlns="http://www.w3.org/2000/svg">
<g clip-path="url(#clip0_31_5766)">
<path d="M8.83196 3.50064V15.1027L7.61768 14.894V17.0001L16.1556 15.4917V2.21045L8.83196 3.50064ZM13.9927 12.4465C13.9882 12.4711 13.977 12.4939 13.9602 12.5123C13.9435 12.5308 13.9218 12.5441 13.8978 12.5508L12.674 12.769C12.6641 12.7719 12.6536 12.7726 12.6433 12.7713C12.6331 12.7699 12.6232 12.7664 12.6143 12.7611C12.6054 12.7558 12.5977 12.7487 12.5917 12.7403C12.5856 12.7318 12.5814 12.7223 12.5792 12.7121L11.8772 10.5112L11.1657 12.9588C11.1636 12.9807 11.1539 13.0012 11.1383 13.0168C11.1227 13.0324 11.1022 13.0421 11.0803 13.0442L9.84702 13.2623C9.83561 13.2653 9.82366 13.2656 9.81213 13.2631C9.8006 13.2606 9.78981 13.2555 9.78061 13.2482C9.7714 13.2408 9.76403 13.2314 9.7591 13.2207C9.75416 13.2099 9.75179 13.1982 9.75216 13.1865V11.8299C9.75216 11.8299 9.75216 11.8299 9.75216 11.7824L10.8241 9.79973L9.79958 8.13958V6.783C9.80215 6.7592 9.81159 6.73665 9.82675 6.71812C9.84192 6.69959 9.86215 6.68589 9.88497 6.67866L11.1372 6.46046C11.1846 6.46046 11.2036 6.46045 11.2321 6.50788L11.8487 8.6329L12.4558 6.28971C12.4603 6.26796 12.4722 6.24845 12.4895 6.23459C12.5069 6.22072 12.5285 6.21335 12.5507 6.2138L13.8029 5.98613C13.8143 5.98318 13.8263 5.98291 13.8378 5.98538C13.8493 5.98784 13.8602 5.99298 13.8694 6.00034C13.8786 6.00771 13.8859 6.01711 13.8909 6.02782C13.8958 6.03853 13.8982 6.05022 13.8978 6.06201V7.41862L12.8733 9.44873L13.9357 11.052L13.9927 12.4465Z" fill="white"/>
<path d="M0 0V13.2812L8.53795 14.7896V1.50837L0 0ZM6.9442 11.0803C6.94015 11.1006 6.92962 11.1189 6.91421 11.1326C6.89881 11.1463 6.87937 11.1546 6.85883 11.1562L5.62557 10.9381C5.60023 10.9307 5.57767 10.9159 5.56077 10.8956C5.54388 10.8753 5.53341 10.8505 5.53069 10.8242V6.98213L4.71485 9.25891C4.70836 9.27764 4.69481 9.29309 4.67708 9.30196C4.65935 9.31082 4.63886 9.31241 4.61999 9.30636L3.87054 9.17353C3.8231 9.17353 3.80413 9.17354 3.78516 9.08816L2.95983 6.52679V10.3214C2.95773 10.3434 2.94805 10.3639 2.93247 10.3794C2.91689 10.395 2.89639 10.4047 2.87446 10.4068L1.66016 10.1886C1.63733 10.1814 1.61711 10.1677 1.60195 10.1491C1.58679 10.1306 1.57735 10.1081 1.57478 10.0843V3.68081C1.5747 3.66999 1.57693 3.65928 1.58132 3.6494C1.58572 3.63951 1.59217 3.63067 1.60026 3.62349C1.60834 3.6163 1.61786 3.61091 1.62819 3.60771C1.63853 3.6045 1.64942 3.60355 1.66016 3.6049L2.98829 3.84206C3.0091 3.84686 3.02813 3.85742 3.04322 3.87252C3.05832 3.88762 3.06887 3.90663 3.07367 3.92744L4.27847 7.47545L5.46429 4.34485C5.46429 4.34485 5.46429 4.28795 5.55915 4.29743L6.87779 4.5251C6.90181 4.53183 6.92345 4.54521 6.94022 4.56366C6.957 4.58212 6.96824 4.60492 6.97266 4.62947V11.0329L6.9442 11.0803Z" fill="white"/>
</g>
<defs>
<clipPath id="clip0_31_5766">
<rect width="16.1557" height="17" fill="white"/>
</clipPath>
</defs>
</svg>
