<svg width="22" height="22" viewBox="0 0 22 22" fill="none" xmlns="http://www.w3.org/2000/svg">
<path d="M7.543 6.17786L7.873 5.84786C7.97776 5.7431 8.08776 5.65405 8.203 5.58072C8.29728 6.86929 8.60612 8.10548 9.12951 9.28929C9.65374 10.4731 10.382 11.5312 11.3144 12.4636C12.2468 13.396 13.3047 14.1241 14.4881 14.6479C15.6723 15.1717 16.9087 15.4807 18.1973 15.575C18.1239 15.6902 18.0349 15.8002 17.9301 15.905L17.6001 16.235C16.2068 17.6283 14.5306 18.3252 12.5716 18.3256C10.6125 18.3252 8.93633 17.6283 7.543 16.235C6.14966 14.8417 5.45279 13.1655 5.45237 11.2064C5.45279 9.24739 6.14966 7.5712 7.543 6.17786ZM6.28585 4.92072C5.41633 5.79024 4.76408 6.77228 4.32911 7.86683C3.89456 8.9618 3.67728 10.075 3.67728 11.2064C3.67728 12.3379 3.89477 13.4509 4.32974 14.5454C4.76429 15.6404 5.41633 16.6226 6.28585 17.4921C7.15538 18.3617 8.13763 19.0137 9.2326 19.4483C10.3271 19.8832 11.4401 20.1007 12.5716 20.1007C13.703 20.1007 14.816 19.8832 15.9105 19.4483C17.0055 19.0137 17.9878 18.3617 18.8573 17.4921C19.4125 16.9369 19.8839 16.3243 20.2716 15.6542C20.6592 14.9833 20.9525 14.2655 21.1516 13.5007C19.6116 13.9093 18.0795 13.9118 16.5555 13.5083C15.031 13.1051 13.703 12.3379 12.5716 11.2064C11.4401 10.075 10.6729 8.74704 10.2697 7.22255C9.8662 5.69847 9.86871 4.16643 10.2773 2.62643C9.51252 2.82548 8.79469 3.11881 8.1238 3.50643C7.45374 3.89405 6.84109 4.36548 6.28585 4.92072Z" fill="#5CBAFF"/>
</svg>
