<svg width="94" height="36" viewBox="0 0 94 36" fill="none" xmlns="http://www.w3.org/2000/svg">
<rect width="94" height="36" rx="3" fill="#503396"/>
<path d="M41.36 19.365H39.935C39.5 20.79 38.63 21.525 37.295 21.525C35.27 21.525 34.295 19.755 34.295 16.53C34.295 13.245 35.255 11.55 37.295 11.55C38.63 11.55 39.47 12.24 39.905 13.575H41.36V10.86H43.07V24.27H41.36V19.365ZM40.22 17.805H41.375V15.135H40.22C40.265 15.57 40.28 16.035 40.28 16.53C40.28 16.98 40.265 17.415 40.22 17.805ZM45.755 24.615H44.015V10.71H45.755V24.615ZM38.54 16.53C38.54 14.4 38.21 13.17 37.295 13.17C36.395 13.17 36.14 14.4 36.14 16.53C36.14 18.675 36.395 19.905 37.295 19.905C38.21 19.905 38.54 18.675 38.54 16.53ZM53.279 20.91H47.789V11.88H53.279V20.91ZM51.539 19.38V13.395H49.544V19.38H51.539ZM58.889 24.615H57.119V17.01H56.099V24.27H54.359V10.86H56.099V15.45H57.119V10.71H58.889V24.615Z" fill="white"/>
</svg>
