<svg width="200" height="36" viewBox="0 0 200 36" fill="none" xmlns="http://www.w3.org/2000/svg">
<rect width="200" height="36" rx="3" fill="#503396"/>
<path d="M94.36 19.365H92.935C92.5 20.79 91.63 21.525 90.295 21.525C88.27 21.525 87.295 19.755 87.295 16.53C87.295 13.245 88.255 11.55 90.295 11.55C91.63 11.55 92.47 12.24 92.905 13.575H94.36V10.86H96.07V24.27H94.36V19.365ZM93.22 17.805H94.375V15.135H93.22C93.265 15.57 93.28 16.035 93.28 16.53C93.28 16.98 93.265 17.415 93.22 17.805ZM98.755 24.615H97.015V10.71H98.755V24.615ZM91.54 16.53C91.54 14.4 91.21 13.17 90.295 13.17C89.395 13.17 89.14 14.4 89.14 16.53C89.14 18.675 89.395 19.905 90.295 19.905C91.21 19.905 91.54 18.675 91.54 16.53ZM106.279 20.91H100.789V11.88H106.279V20.91ZM104.539 19.38V13.395H102.544V19.38H104.539ZM111.889 24.615H110.119V17.01H109.099V24.27H107.359V10.86H109.099V15.45H110.119V10.71H111.889V24.615Z" fill="white"/>
</svg>
